# xmcd CD database file
# Copyright (C) 1993-1999 CDDB, Inc.
#
# Track frame offsets:
#	150
#	10832
#	20384
#	32653
#	44895
#	56921
#	70665
#	84053
#	95593
#	109143
#	123979
#	137087
#
# Disc length: 1951
#
# Revision: 1
# Processed by: cddbd v1.5.1PL0 Copyright (c) Steve Scherf et al.
# Submitted via: CoolCD_Studio 1.4
#
DISCID=9c079d0c
DTITLE=Various Artist - Queens Of Country - Country Sunshine
DYEAR=2004
DGENRE=
TTITLE0=Connie Smith - Once A Day
TTITLE1=Dottie West - Country Sunshine
TTITLE2=Dolly Parton - Jolene
TTITLE3=Tammy Wynette - Stand By Your Man
TTITLE4=Skeeter Davis - The End Of The World
TTITLE5=Davis Sisters - I Forgot More Than You'll Ever Know
TTITLE6=Dolly Parton - I Will Always Love You
TTITLE7=Donna Fargo - The Happiest Girl In The Whole U.S.A.
TTITLE8=Gale Garnett - We'll Sing In The Sunshine
TTITLE9=Jeannie C. Riley - Harper Valley P.T.A.
TTITLE10=The Carter Family - Keep On The Sunny Side
TTITLE11=Minnie Pearl - Tunnel Of Love
EXTD=
EXTT0=
EXTT1=
EXTT2=
EXTT3=
EXTT4=
EXTT5=
EXTT6=
EXTT7=
EXTT8=
EXTT9=
EXTT10=
EXTT11=
PLAYORDER=
